<?xml version="1.0" encoding="iso-8859-1"?>
<!-- Generator: Adobe Illustrator 18.0.0, SVG Export Plug-In . SVG Version: 6.00 Build 0)  -->
<!DOCTYPE svg PUBLIC "-//W3C//DTD SVG 1.1//EN" "http://www.w3.org/Graphics/SVG/1.1/DTD/svg11.dtd">
<svg version="1.1" id="Capa_1" xmlns="http://www.w3.org/2000/svg" xmlns:xlink="http://www.w3.org/1999/xlink" x="0px" y="0px"
	 viewBox="0 0 45.694 45.694" style="enable-background:new 0 0 45.694 45.694;" xml:space="preserve">
<g>
	<path style="fill:none;stroke:#1D1D1B;stroke-width:0;stroke-linecap:round;stroke-linejoin:round;" d="M33.881,11.15
		c0.016,0,0.016-0.025,0-0.025"/>
	<path style="fill:#1D1D1B;" d="M34.541,10.989c-0.103-0.055-0.203-0.022-0.282,0.038c-0.466-0.381-0.887-0.817-1.243-1.3
		c-0.083-0.113-0.194-0.154-0.3-0.151c-1.164-1.13-2.571-1.832-4.184-1.985c0.199-0.635,0.476-1.229,0.822-1.799
		c0.348-0.573,0.826-1.037,1.167-1.613c0.213-0.359,0.059-0.749-0.225-0.958c0.086-0.324-0.022-0.698-0.421-0.762
		c-0.775-0.124-1.55-0.274-2.333-0.335c-0.358-0.028-0.514,0.533-0.186,0.688c0.553,0.261,1.127,0.472,1.7,0.684
		C27.986,4.4,27.4,5.961,27.172,7.277c-0.079,0.456,0.223,0.768,0.565,0.842c0.038,0.225,0.197,0.441,0.481,0.478
		c1.026,0.134,1.894,0.454,2.683,0.97c-0.782,0.025-1.564,0.058-2.346,0.124c-0.448,0.038-0.641,0.513-0.354,0.855
		c0.496,0.592,0.715,1.23,0.715,1.919c-0.482-0.549-0.964-1.098-1.443-1.65c-0.169-0.195-0.544-0.196-0.713,0
		c-0.436,0.505-0.88,0.962-1.362,1.383c0.058-0.26,0.136-0.521,0.268-0.798c0.241-0.504-0.313-1.001-0.76-0.684
		c-0.954-0.078-1.953,0.023-2.924,0.191c0.424-0.322,0.935-0.532,1.472-0.558c0.269-0.013,0.473-0.307,0.319-0.556
		c-0.512-0.823-1.128-1.529-1.791-2.2c0.403,0.038,0.806,0.096,1.213,0.216C24,8.046,24.793,8.356,25.589,8.619
		c0.365,0.121,0.583-0.331,0.387-0.6c0.017-0.028,0.039-0.049,0.053-0.082c0.61-1.477,1.579-3.669,1.113-5.282
		c-0.128-0.442-0.822-0.595-1.044-0.136c-0.368,0.761-0.345,1.635-0.475,2.464c-0.123,0.786-0.266,1.562-0.446,2.335
		c-1.32-0.929-3.15-1.276-4.7-0.953c-7.933-3.207-17.682,4.107-19.81,11.613c-3.069,10.826,4.93,19.309,14.325,23.213
		c8.808,3.66,22.363,3.905,28.271-5.09C49.306,26.9,43.211,15.639,34.541,10.989z M41.816,35.256
		c-5.151,7.816-16.979,7.768-24.804,4.93C8.695,37.17,0.933,30.614,1.753,20.984c0.426-5.01,3.343-9.524,7.805-11.856
		c3.568-1.864,7.036-1.645,10.803-1.619c0.98,0.481,1.749,1.219,2.379,2.089c-1.097,0.078-1.997,0.677-2.481,1.817
		c-0.168,0.396,0.108,0.867,0.577,0.75c1.099-0.274,2.206-0.369,3.311-0.51c-0.359,0.67-0.46,1.435-0.239,2.234
		c0.154,0.56,0.789,0.643,1.195,0.316c0.802-0.647,1.496-1.373,2.073-2.209c0.577,0.649,1.153,1.299,1.729,1.949
		c0.254,0.287,0.722,0.119,0.823-0.217c0.329-1.092,0.235-2.103-0.244-3.028c0.741,0.006,1.481-0.01,2.223-0.025
		c-0.093,0.145-0.018,0.397,0.236,0.35c0.211-0.04,0.423-0.079,0.634-0.119c0.101-0.019,0.101-0.185,0-0.203
		c-0.063-0.012-0.125-0.023-0.188-0.035c0.019,0,0.038,0,0.058-0.001c0.102-0.003,0.191-0.035,0.27-0.081
		c0.25,0.431,0.524,0.846,0.85,1.226c0.385,0.448,1.005,1.165,1.66,1.088c0.135-0.016,0.269-0.082,0.356-0.182
		C41.46,18.593,47.169,27.134,41.816,35.256z"/>
</g>
<g>
</g>
<g>
</g>
<g>
</g>
<g>
</g>
<g>
</g>
<g>
</g>
<g>
</g>
<g>
</g>
<g>
</g>
<g>
</g>
<g>
</g>
<g>
</g>
<g>
</g>
<g>
</g>
<g>
</g>
</svg>
